<mxfile host="app.diagrams.net" agent="Mozilla/5.0 (Windows NT 10.0; Win64; x64) AppleWebKit/537.36 (KHTML, like Gecko) Chrome/129.0.0.0 Safari/537.36" version="24.7.14">
  <diagram name="Page-1" id="uqyBOzj73zarDBZXWM95">
    <mxGraphModel dx="1696" dy="891" grid="1" gridSize="10" guides="1" tooltips="1" connect="1" arrows="1" fold="1" page="1" pageScale="1" pageWidth="850" pageHeight="1100" math="0" shadow="0">
      <root>
        <mxCell id="0" />
        <mxCell id="1" parent="0" />
        <mxCell id="tkyxEisftX3SPPPMEs8X-19" style="edgeStyle=orthogonalEdgeStyle;rounded=0;orthogonalLoop=1;jettySize=auto;html=1;exitX=0.5;exitY=1;exitDx=0;exitDy=0;entryX=0.5;entryY=0;entryDx=0;entryDy=0;" edge="1" parent="1" source="tkyxEisftX3SPPPMEs8X-1" target="tkyxEisftX3SPPPMEs8X-13">
          <mxGeometry relative="1" as="geometry" />
        </mxCell>
        <mxCell id="tkyxEisftX3SPPPMEs8X-1" value="" style="rounded=0;whiteSpace=wrap;html=1;" vertex="1" parent="1">
          <mxGeometry x="210" y="31" width="405" height="170" as="geometry" />
        </mxCell>
        <mxCell id="tkyxEisftX3SPPPMEs8X-4" value="" style="rounded=0;whiteSpace=wrap;html=1;" vertex="1" parent="1">
          <mxGeometry x="340.5" y="116" width="149.5" height="60" as="geometry" />
        </mxCell>
        <mxCell id="tkyxEisftX3SPPPMEs8X-5" value="&lt;b&gt;&lt;font style=&quot;font-size: 18px;&quot;&gt;Front-End Technologies&lt;/font&gt;&lt;/b&gt;" style="text;html=1;align=center;verticalAlign=middle;whiteSpace=wrap;rounded=0;" vertex="1" parent="1">
          <mxGeometry x="314" y="47" width="210" height="30" as="geometry" />
        </mxCell>
        <mxCell id="tkyxEisftX3SPPPMEs8X-9" style="edgeStyle=orthogonalEdgeStyle;rounded=0;orthogonalLoop=1;jettySize=auto;html=1;entryX=0;entryY=0.25;entryDx=0;entryDy=0;" edge="1" parent="1" source="tkyxEisftX3SPPPMEs8X-6" target="tkyxEisftX3SPPPMEs8X-4">
          <mxGeometry relative="1" as="geometry" />
        </mxCell>
        <mxCell id="tkyxEisftX3SPPPMEs8X-6" value="&lt;b&gt;&lt;font style=&quot;font-size: 16px;&quot;&gt;Sender&lt;/font&gt;&lt;/b&gt;" style="text;html=1;align=center;verticalAlign=middle;whiteSpace=wrap;rounded=0;" vertex="1" parent="1">
          <mxGeometry x="230" y="87" width="60" height="30" as="geometry" />
        </mxCell>
        <mxCell id="tkyxEisftX3SPPPMEs8X-10" style="edgeStyle=orthogonalEdgeStyle;rounded=0;orthogonalLoop=1;jettySize=auto;html=1;entryX=1;entryY=0.75;entryDx=0;entryDy=0;" edge="1" parent="1" source="tkyxEisftX3SPPPMEs8X-7" target="tkyxEisftX3SPPPMEs8X-4">
          <mxGeometry relative="1" as="geometry" />
        </mxCell>
        <mxCell id="tkyxEisftX3SPPPMEs8X-7" value="&lt;b&gt;&lt;font style=&quot;font-size: 16px;&quot;&gt;Employee&lt;/font&gt;&lt;/b&gt;" style="text;html=1;align=center;verticalAlign=middle;whiteSpace=wrap;rounded=0;" vertex="1" parent="1">
          <mxGeometry x="537" y="88" width="60" height="30" as="geometry" />
        </mxCell>
        <mxCell id="tkyxEisftX3SPPPMEs8X-11" value="&lt;b style=&quot;font-size: 17px;&quot;&gt;&lt;font style=&quot;font-size: 17px;&quot;&gt;Mobile APP&lt;/font&gt;&lt;/b&gt;&lt;div style=&quot;font-size: 17px;&quot;&gt;&lt;b style=&quot;&quot;&gt;&lt;font style=&quot;font-size: 17px;&quot;&gt;[FLUTTER]&lt;/font&gt;&lt;/b&gt;&lt;/div&gt;" style="text;html=1;align=center;verticalAlign=middle;whiteSpace=wrap;rounded=0;" vertex="1" parent="1">
          <mxGeometry x="350" y="132" width="130" height="30" as="geometry" />
        </mxCell>
        <mxCell id="tkyxEisftX3SPPPMEs8X-26" value="" style="edgeStyle=orthogonalEdgeStyle;rounded=0;orthogonalLoop=1;jettySize=auto;html=1;" edge="1" parent="1" source="tkyxEisftX3SPPPMEs8X-13" target="tkyxEisftX3SPPPMEs8X-25">
          <mxGeometry relative="1" as="geometry" />
        </mxCell>
        <mxCell id="tkyxEisftX3SPPPMEs8X-13" value="" style="rounded=0;whiteSpace=wrap;html=1;" vertex="1" parent="1">
          <mxGeometry x="210" y="237" width="405" height="250" as="geometry" />
        </mxCell>
        <mxCell id="tkyxEisftX3SPPPMEs8X-14" value="&lt;b&gt;&lt;font style=&quot;font-size: 18px;&quot;&gt;Back-End Technologies&lt;/font&gt;&lt;/b&gt;" style="text;html=1;align=center;verticalAlign=middle;whiteSpace=wrap;rounded=0;" vertex="1" parent="1">
          <mxGeometry x="310" y="248" width="220" height="30" as="geometry" />
        </mxCell>
        <mxCell id="tkyxEisftX3SPPPMEs8X-17" value="&lt;b&gt;&lt;font style=&quot;font-size: 16px;&quot;&gt;Delivery Request&lt;/font&gt;&lt;/b&gt;&lt;div&gt;&lt;b&gt;&lt;font style=&quot;font-size: 16px;&quot;&gt;[Django Rest API&#39;s}&lt;/font&gt;&lt;/b&gt;&lt;/div&gt;" style="rounded=0;whiteSpace=wrap;html=1;" vertex="1" parent="1">
          <mxGeometry x="230" y="293" width="160" height="77" as="geometry" />
        </mxCell>
        <mxCell id="tkyxEisftX3SPPPMEs8X-22" value="&lt;span style=&quot;font-size: 16px;&quot;&gt;&lt;b&gt;Employee Availability&lt;/b&gt;&lt;/span&gt;" style="rounded=0;whiteSpace=wrap;html=1;" vertex="1" parent="1">
          <mxGeometry x="440" y="293" width="157" height="77" as="geometry" />
        </mxCell>
        <mxCell id="tkyxEisftX3SPPPMEs8X-23" value="&lt;span style=&quot;font-size: 16px;&quot;&gt;&lt;b&gt;Routing &amp;amp; Navigation&lt;/b&gt;&lt;/span&gt;&lt;div&gt;&lt;span style=&quot;font-size: 16px;&quot;&gt;&lt;b&gt;(Google Map API)&lt;/b&gt;&lt;/span&gt;&lt;/div&gt;" style="rounded=0;whiteSpace=wrap;html=1;" vertex="1" parent="1">
          <mxGeometry x="230" y="390" width="160" height="77" as="geometry" />
        </mxCell>
        <mxCell id="tkyxEisftX3SPPPMEs8X-24" value="&lt;span style=&quot;font-size: 16px;&quot;&gt;&lt;b&gt;Real-Time Tracking&lt;/b&gt;&lt;/span&gt;&lt;div&gt;&lt;span style=&quot;font-size: 16px;&quot;&gt;&lt;b&gt;(Socket.io)&lt;/b&gt;&lt;/span&gt;&lt;/div&gt;" style="rounded=0;whiteSpace=wrap;html=1;" vertex="1" parent="1">
          <mxGeometry x="440" y="390" width="157" height="77" as="geometry" />
        </mxCell>
        <mxCell id="tkyxEisftX3SPPPMEs8X-38" style="edgeStyle=orthogonalEdgeStyle;rounded=0;orthogonalLoop=1;jettySize=auto;html=1;exitX=0.5;exitY=1;exitDx=0;exitDy=0;entryX=0.5;entryY=0;entryDx=0;entryDy=0;" edge="1" parent="1" source="tkyxEisftX3SPPPMEs8X-25" target="tkyxEisftX3SPPPMEs8X-31">
          <mxGeometry relative="1" as="geometry" />
        </mxCell>
        <mxCell id="tkyxEisftX3SPPPMEs8X-25" value="" style="rounded=0;whiteSpace=wrap;html=1;" vertex="1" parent="1">
          <mxGeometry x="210" y="531" width="405" height="159" as="geometry" />
        </mxCell>
        <mxCell id="tkyxEisftX3SPPPMEs8X-27" value="&lt;b&gt;&lt;font style=&quot;font-size: 18px;&quot;&gt;Status Updates&lt;/font&gt;&lt;/b&gt;" style="text;html=1;align=center;verticalAlign=middle;whiteSpace=wrap;rounded=0;" vertex="1" parent="1">
          <mxGeometry x="330" y="535" width="170" height="30" as="geometry" />
        </mxCell>
        <mxCell id="tkyxEisftX3SPPPMEs8X-28" value="&lt;span style=&quot;font-size: 16px;&quot;&gt;&lt;b&gt;Notification&lt;/b&gt;&lt;/span&gt;&lt;div&gt;&lt;span style=&quot;font-size: 16px;&quot;&gt;&lt;b&gt;[Twilio API]&lt;/b&gt;&lt;/span&gt;&lt;/div&gt;" style="rounded=0;whiteSpace=wrap;html=1;" vertex="1" parent="1">
          <mxGeometry x="230" y="577.5" width="160" height="77" as="geometry" />
        </mxCell>
        <mxCell id="tkyxEisftX3SPPPMEs8X-29" value="&lt;span style=&quot;font-size: 16px;&quot;&gt;&lt;b&gt;Feedback System&lt;/b&gt;&lt;/span&gt;&lt;div&gt;&lt;span style=&quot;font-size: 16px;&quot;&gt;&lt;b&gt;[Redis]&lt;/b&gt;&lt;/span&gt;&lt;/div&gt;" style="rounded=0;whiteSpace=wrap;html=1;" vertex="1" parent="1">
          <mxGeometry x="440" y="577.5" width="160" height="77" as="geometry" />
        </mxCell>
        <mxCell id="tkyxEisftX3SPPPMEs8X-30" style="edgeStyle=orthogonalEdgeStyle;rounded=0;orthogonalLoop=1;jettySize=auto;html=1;exitX=0.5;exitY=1;exitDx=0;exitDy=0;" edge="1" parent="1" source="tkyxEisftX3SPPPMEs8X-25" target="tkyxEisftX3SPPPMEs8X-25">
          <mxGeometry relative="1" as="geometry" />
        </mxCell>
        <mxCell id="tkyxEisftX3SPPPMEs8X-31" value="" style="rounded=0;whiteSpace=wrap;html=1;" vertex="1" parent="1">
          <mxGeometry x="210" y="746" width="405" height="159" as="geometry" />
        </mxCell>
        <mxCell id="tkyxEisftX3SPPPMEs8X-32" value="&lt;span style=&quot;font-size: 18px;&quot;&gt;&lt;b&gt;Database Technologies&lt;/b&gt;&lt;/span&gt;" style="text;html=1;align=center;verticalAlign=middle;whiteSpace=wrap;rounded=0;" vertex="1" parent="1">
          <mxGeometry x="315" y="757" width="210" height="30" as="geometry" />
        </mxCell>
        <mxCell id="tkyxEisftX3SPPPMEs8X-33" value="&lt;span style=&quot;font-size: 16px;&quot;&gt;&lt;b&gt;PostgreSQL/Redis&lt;/b&gt;&lt;/span&gt;" style="rounded=0;whiteSpace=wrap;html=1;" vertex="1" parent="1">
          <mxGeometry x="332" y="801" width="160" height="77" as="geometry" />
        </mxCell>
      </root>
    </mxGraphModel>
  </diagram>
</mxfile>
